<svg id="svg" version="1.1" xmlns="http://www.w3.org/2000/svg" xmlns:xlink="http://www.w3.org/1999/xlink" width="400" height="225" viewBox="0, 0, 400,225"><g id="svgg"><path id="path0" d="M176.875 0.521 C 176.875 0.807,176.974 1.042,177.094 1.042 C 177.214 1.042,177.450 1.370,177.618 1.771 C 177.785 2.172,178.108 2.616,178.336 2.758 C 178.564 2.901,178.750 3.118,178.750 3.242 C 178.750 3.818,190.998 16.180,193.139 17.765 C 193.413 17.968,194.905 19.372,196.454 20.885 C 201.005 25.330,205.333 29.529,211.766 35.737 C 215.086 38.941,219.336 43.063,221.209 44.896 C 223.083 46.729,224.983 48.550,225.433 48.941 C 225.882 49.333,226.250 49.769,226.250 49.910 C 226.250 50.051,227.094 50.957,228.125 51.923 C 229.156 52.889,230.000 53.775,230.000 53.892 C 230.000 54.008,230.563 54.640,231.250 55.296 C 231.938 55.951,232.500 56.538,232.500 56.600 C 232.500 56.662,233.484 57.768,234.688 59.058 C 235.891 60.348,236.875 61.495,236.875 61.606 C 236.875 61.718,237.344 62.205,237.917 62.688 C 238.490 63.171,238.959 63.678,238.959 63.814 C 238.961 64.458,249.213 73.909,254.540 78.179 C 255.147 78.665,256.002 79.367,256.440 79.740 C 256.879 80.112,257.326 80.417,257.434 80.417 C 257.542 80.417,257.900 80.698,258.229 81.042 C 258.559 81.385,258.922 81.667,259.036 81.667 C 259.150 81.667,259.457 81.867,259.718 82.112 C 259.979 82.357,260.370 82.662,260.588 82.789 C 260.805 82.917,261.678 83.536,262.529 84.167 C 263.379 84.797,264.227 85.406,264.412 85.521 C 264.597 85.635,265.185 86.034,265.718 86.406 C 266.251 86.779,266.753 87.083,266.833 87.084 C 266.914 87.084,267.495 87.437,268.125 87.869 C 268.755 88.300,269.505 88.772,269.792 88.918 C 270.078 89.063,270.969 89.548,271.771 89.994 C 272.573 90.440,274.495 91.433,276.042 92.200 C 284.073 96.182,285.623 96.964,286.771 97.610 C 287.458 97.998,288.396 98.510,288.854 98.749 C 289.313 98.988,290.109 99.459,290.625 99.796 C 291.141 100.133,291.750 100.504,291.979 100.620 C 292.597 100.935,293.139 101.287,293.987 101.927 C 294.405 102.242,294.837 102.500,294.946 102.500 C 295.055 102.500,295.322 102.698,295.541 102.941 C 295.759 103.183,296.125 103.466,296.354 103.569 C 297.182 103.941,300.719 106.548,301.227 107.160 C 301.382 107.347,301.604 107.500,301.719 107.500 C 301.834 107.500,302.290 107.805,302.731 108.177 C 303.172 108.549,304.013 109.229,304.600 109.688 C 305.187 110.146,306.666 111.464,307.886 112.617 C 309.106 113.770,310.643 115.215,311.302 115.829 C 311.961 116.443,312.500 117.059,312.500 117.198 C 312.500 117.336,312.969 117.876,313.542 118.398 C 314.115 118.919,314.583 119.408,314.583 119.485 C 314.583 119.561,315.099 120.211,315.729 120.929 C 316.359 121.646,316.875 122.311,316.875 122.406 C 316.875 122.500,317.250 123.022,317.708 123.566 C 318.167 124.109,318.542 124.615,318.542 124.690 C 318.542 124.765,318.870 125.226,319.271 125.716 C 319.672 126.205,320.000 126.683,320.000 126.779 C 320.000 126.874,320.375 127.397,320.833 127.941 C 321.292 128.484,321.667 128.986,321.667 129.057 C 321.667 129.127,321.760 129.297,321.874 129.436 C 321.987 129.574,322.413 130.109,322.819 130.625 C 323.226 131.141,323.742 131.763,323.967 132.009 C 324.191 132.254,324.375 132.550,324.375 132.667 C 324.375 133.166,332.131 140.625,332.649 140.625 C 332.761 140.625,333.031 140.823,333.249 141.066 C 333.467 141.308,333.833 141.589,334.063 141.690 C 334.545 141.903,335.060 142.217,335.938 142.834 C 336.281 143.076,336.797 143.347,337.083 143.438 C 337.370 143.528,337.885 143.804,338.229 144.052 C 338.573 144.300,339.370 144.746,340.000 145.043 C 342.434 146.189,343.457 146.639,343.958 146.782 C 344.245 146.864,344.526 146.996,344.583 147.075 C 344.684 147.214,345.422 147.497,347.604 148.234 C 348.177 148.428,348.941 148.717,349.302 148.877 C 349.663 149.036,350.187 149.167,350.466 149.167 C 350.744 149.167,351.036 149.231,351.115 149.309 C 351.352 149.546,352.753 149.980,353.750 150.125 C 354.266 150.200,354.819 150.366,354.980 150.495 C 355.188 150.662,358.570 150.733,366.684 150.744 C 374.285 150.753,378.188 150.831,378.371 150.976 C 378.522 151.096,379.442 151.257,380.415 151.335 C 381.389 151.413,382.275 151.566,382.384 151.676 C 382.494 151.785,382.934 151.875,383.363 151.875 C 383.791 151.875,384.193 151.958,384.256 152.059 C 384.318 152.160,384.901 152.309,385.552 152.391 C 386.202 152.472,386.883 152.618,387.065 152.715 C 387.247 152.813,387.958 153.057,388.646 153.259 C 389.333 153.461,390.130 153.747,390.417 153.895 C 390.703 154.043,391.096 154.165,391.290 154.165 C 391.484 154.166,391.700 154.260,391.771 154.375 C 391.842 154.490,392.058 154.584,392.252 154.584 C 392.446 154.585,393.065 154.819,393.629 155.105 C 394.193 155.391,394.755 155.625,394.879 155.626 C 395.003 155.626,395.667 155.907,396.354 156.250 C 397.042 156.593,397.745 156.877,397.917 156.881 C 398.089 156.885,398.411 157.026,398.634 157.194 C 398.856 157.362,399.254 157.500,399.519 157.500 L 400.000 157.500 400.000 78.750 L 400.000 0.000 288.438 0.000 L 176.875 0.000 176.875 0.521 " stroke="none" fill="#84dcfc" fill-rule="evenodd"></path><path id="path1" d="M0.000 112.500 L 0.000 225.000 200.000 225.000 L 400.000 225.000 400.000 191.250 L 400.000 157.500 399.519 157.500 C 399.254 157.500,398.856 157.362,398.634 157.194 C 398.411 157.026,398.089 156.885,397.917 156.881 C 397.745 156.877,397.042 156.593,396.354 156.250 C 395.667 155.907,395.003 155.626,394.879 155.626 C 394.755 155.625,394.193 155.391,393.629 155.105 C 393.065 154.819,392.446 154.585,392.252 154.584 C 392.058 154.584,391.842 154.490,391.771 154.375 C 391.700 154.260,391.484 154.166,391.290 154.165 C 391.096 154.165,390.703 154.043,390.417 153.895 C 390.130 153.747,389.333 153.461,388.646 153.259 C 387.958 153.057,387.247 152.813,387.065 152.715 C 386.883 152.618,386.202 152.472,385.552 152.391 C 384.901 152.309,384.318 152.160,384.256 152.059 C 384.193 151.958,383.791 151.875,383.363 151.875 C 382.934 151.875,382.494 151.785,382.384 151.676 C 382.275 151.566,381.389 151.413,380.415 151.335 C 379.442 151.257,378.522 151.096,378.371 150.976 C 378.188 150.831,374.285 150.753,366.684 150.744 C 358.570 150.733,355.188 150.662,354.980 150.495 C 354.819 150.366,354.266 150.200,353.750 150.125 C 352.753 149.980,351.352 149.546,351.115 149.309 C 351.036 149.231,350.744 149.167,350.466 149.167 C 350.187 149.167,349.663 149.036,349.302 148.877 C 348.941 148.717,348.201 148.436,347.656 148.252 C 345.442 147.502,344.682 147.211,344.583 147.075 C 344.526 146.996,344.245 146.864,343.958 146.782 C 343.457 146.639,342.434 146.189,340.000 145.043 C 339.370 144.746,338.573 144.300,338.229 144.052 C 337.885 143.804,337.370 143.528,337.083 143.438 C 336.797 143.347,336.281 143.076,335.938 142.834 C 335.060 142.217,334.545 141.903,334.063 141.690 C 333.833 141.589,333.467 141.308,333.249 141.066 C 333.031 140.823,332.761 140.625,332.649 140.625 C 332.131 140.625,324.375 133.166,324.375 132.667 C 324.375 132.550,324.191 132.254,323.967 132.009 C 323.742 131.763,323.226 131.141,322.819 130.625 C 322.413 130.109,321.987 129.574,321.874 129.436 C 321.760 129.297,321.667 129.127,321.667 129.057 C 321.667 128.986,321.292 128.484,320.833 127.941 C 320.375 127.397,320.000 126.874,320.000 126.779 C 320.000 126.683,319.672 126.205,319.271 125.716 C 318.870 125.226,318.542 124.765,318.542 124.690 C 318.542 124.615,318.167 124.109,317.708 123.566 C 317.250 123.022,316.875 122.500,316.875 122.406 C 316.875 122.311,316.359 121.646,315.729 120.929 C 315.099 120.211,314.583 119.561,314.583 119.485 C 314.583 119.408,314.115 118.919,313.542 118.398 C 312.969 117.876,312.500 117.336,312.500 117.198 C 312.500 117.059,311.961 116.443,311.302 115.829 C 310.643 115.215,309.106 113.770,307.886 112.617 C 306.666 111.464,305.187 110.146,304.600 109.688 C 304.013 109.229,303.172 108.549,302.731 108.177 C 302.290 107.805,301.834 107.500,301.719 107.500 C 301.604 107.500,301.382 107.347,301.227 107.160 C 300.719 106.548,297.182 103.941,296.354 103.569 C 296.125 103.466,295.759 103.183,295.541 102.941 C 295.322 102.698,295.055 102.500,294.946 102.500 C 294.837 102.500,294.405 102.242,293.987 101.927 C 293.139 101.287,292.597 100.935,291.979 100.620 C 291.750 100.504,291.141 100.133,290.625 99.796 C 290.109 99.459,289.313 98.988,288.854 98.749 C 288.396 98.510,287.458 97.998,286.771 97.610 C 285.623 96.964,284.073 96.182,276.042 92.200 C 274.495 91.433,272.573 90.440,271.771 89.994 C 270.969 89.548,270.078 89.063,269.792 88.918 C 269.505 88.772,268.755 88.300,268.125 87.869 C 267.495 87.437,266.914 87.084,266.833 87.084 C 266.753 87.083,266.251 86.779,265.718 86.406 C 265.185 86.034,264.597 85.635,264.412 85.521 C 264.227 85.406,263.379 84.797,262.529 84.167 C 261.678 83.536,260.805 82.917,260.588 82.789 C 260.370 82.662,259.979 82.357,259.718 82.112 C 259.457 81.867,259.150 81.667,259.036 81.667 C 258.922 81.667,258.559 81.385,258.229 81.042 C 257.900 80.698,257.542 80.417,257.434 80.417 C 257.326 80.417,256.879 80.112,256.440 79.740 C 256.002 79.367,255.147 78.665,254.540 78.179 C 249.213 73.909,238.961 64.458,238.959 63.814 C 238.959 63.678,238.490 63.171,237.917 62.688 C 237.344 62.205,236.875 61.718,236.875 61.606 C 236.875 61.495,235.891 60.348,234.688 59.058 C 233.484 57.768,232.500 56.662,232.500 56.600 C 232.500 56.538,231.938 55.951,231.250 55.296 C 230.563 54.640,230.000 54.008,230.000 53.892 C 230.000 53.775,229.156 52.889,228.125 51.923 C 227.094 50.957,226.250 50.051,226.250 49.910 C 226.250 49.769,225.882 49.333,225.433 48.941 C 224.983 48.550,223.083 46.729,221.209 44.896 C 219.336 43.063,215.086 38.941,211.766 35.737 C 205.333 29.529,201.005 25.330,196.454 20.885 C 194.905 19.372,193.413 17.968,193.139 17.765 C 190.998 16.180,178.750 3.818,178.750 3.242 C 178.750 3.118,178.564 2.901,178.336 2.758 C 178.108 2.616,177.785 2.172,177.618 1.771 C 177.450 1.370,177.214 1.042,177.094 1.042 C 176.974 1.042,176.875 0.807,176.875 0.521 L 176.875 0.000 88.438 0.000 L 0.000 0.000 0.000 112.500 " stroke="none" fill="#f4f4f4" fill-rule="evenodd"></path></g></svg>